<svg id="svg" version="1.1" xmlns="http://www.w3.org/2000/svg" style="display: block;" viewBox="0 0 126 126"><path d="M0 0 C41.58 0 83.16 0 126 0 C126 41.58 126 83.16 126 126 C84.42 126 42.84 126 0 126 C0 84.42 0 42.84 0 0 Z " transform="translate(0,0)" style="fill: #010101;"/><path d="M0 0 C9.99776872 9.31110878 16.46391717 21.14306005 17.07421875 34.9765625 C17.09056535 36.8466132 17.03796633 38.7170967 16.96875 40.5859375 C11.41263028 41.55491434 6.16353367 41.64642198 0.53515625 41.46484375 C-0.24412231 41.44417847 -1.02340088 41.42351318 -1.82629395 41.40222168 C-4.70729541 41.32409901 -7.5880102 41.23567706 -10.46875 41.1484375 C-16.924375 40.9628125 -23.38 40.7771875 -30.03125 40.5859375 C-30.03125 56.0959375 -30.03125 71.6059375 -30.03125 87.5859375 C-46.73028178 87.5859375 -57.30111169 83.11893063 -69.03125 71.5859375 C-69.62292969 71.00714844 -70.21460938 70.42835937 -70.82421875 69.83203125 C-79.4754153 60.60260562 -82.51924358 48.32796374 -82.27734375 36.01953125 C-81.22358855 21.31713724 -75.74043614 10.22696963 -65.09765625 0.10546875 C-45.65274389 -15.87156115 -19.55369933 -15.57240488 0 0 Z " transform="translate(88.03125,19.4140625)" style="fill: #F1F1F1;"/><path d="M0 0 C3.69715606 2.54692973 6.64814922 4.94675354 8.8125 8.9375 C9.28633959 11.80078707 9.43867893 14.48608274 9.4140625 17.38671875 C9.55056292 20.08923498 9.55056292 20.08923498 11.8046875 21.6171875 C15.07097899 25.39185121 14.39133088 29.55646232 14.3125 34.375 C14.32796875 35.31666016 14.3434375 36.25832031 14.359375 37.22851562 C14.33565935 41.42914993 14.20215658 44.2212741 12.171875 47.953125 C7.05157195 52.25960505 -0.61954041 54.03269299 -7.25 54.4375 C-14.67059768 53.49520188 -22.2394262 51.8842676 -27.1875 45.9375 C-28.51999935 41.94000195 -28.45007566 38.24948778 -28.5 34.0625 C-28.52900391 33.25941406 -28.55800781 32.45632812 -28.58789062 31.62890625 C-28.64537118 26.26110628 -27.86908536 24.0337105 -24.1875 19.9375 C-23.64703564 17.48590715 -23.64703564 17.48590715 -23.6875 15 C-23.28964882 8.91468533 -21.13802804 5.65582232 -16.5625 1.625 C-11.36362749 -2.06893573 -5.98790024 -1.99596675 0 0 Z " transform="translate(92.1875,66.0625)" style="fill: #F0F0F0;"/><path d="M0 0 C1.87171875 -0.00386719 1.87171875 -0.00386719 3.78125 -0.0078125 C5.74578125 0.00378906 5.74578125 0.00378906 7.75 0.015625 C9.0596875 0.00789063 10.369375 0.00015625 11.71875 -0.0078125 C12.9665625 -0.00523438 14.214375 -0.00265625 15.5 0 C16.64984375 0.00225586 17.7996875 0.00451172 18.984375 0.00683594 C21.75 0.265625 21.75 0.265625 23.75 2.265625 C24.00878906 4.11328125 24.00878906 4.11328125 24.015625 6.328125 C24.01949219 7.52308594 24.01949219 7.52308594 24.0234375 8.7421875 C24.01570313 9.57492188 24.00796875 10.40765625 24 11.265625 C24.01160156 12.51472656 24.01160156 12.51472656 24.0234375 13.7890625 C24.02085938 14.58570312 24.01828125 15.38234375 24.015625 16.203125 C24.01336914 16.93402344 24.01111328 17.66492188 24.00878906 18.41796875 C23.75 20.265625 23.75 20.265625 21.75 22.265625 C14.74886115 25.55495317 7.38744261 26.69154226 -0.0703125 24.3984375 C-6.70794393 21.80768107 -6.70794393 21.80768107 -8.25 20.265625 C-8.37667764 17.27544339 -8.43520838 14.31868392 -8.4375 11.328125 C-8.44974609 10.49087891 -8.46199219 9.65363281 -8.47460938 8.79101562 C-8.47654297 7.98986328 -8.47847656 7.18871094 -8.48046875 6.36328125 C-8.48457764 5.62601807 -8.48868652 4.88875488 -8.49291992 4.12915039 C-7.8601813 -0.7248133 -3.92701067 0.00770434 0 0 Z " transform="translate(77.25,89.734375)" style="fill: #060606;"/><path d="M0 0 C3.52632725 1.56725656 6.36062974 3.15588939 9 6 C9.36533397 9.14164164 8.87783287 12.08018814 8.375 15.1875 C8.21064453 16.43563477 8.21064453 16.43563477 8.04296875 17.70898438 C7.19891202 23.80108798 7.19891202 23.80108798 6 25 C3.46950598 25.07313567 0.96695163 25.09247527 -1.5625 25.0625 C-2.27341797 25.05798828 -2.98433594 25.05347656 -3.71679688 25.04882812 C-5.47790013 25.03700864 -7.23896036 25.01907263 -9 25 C-9.23334353 19.87940586 -8.63557451 16.13437181 -6.75 11.375 C-6.33234375 10.28960937 -5.9146875 9.20421875 -5.484375 8.0859375 C-3.98667442 4.97229682 -2.26077171 2.59892133 0 0 Z " transform="translate(20,30)" style="fill: #090909;"/><path d="M0 0 C5.63691506 6.90976685 8.30725366 15.14451052 8 24 C5.52076199 24.02685095 3.0418116 24.04676547 0.5625 24.0625 C-0.14455078 24.07087891 -0.85160156 24.07925781 -1.58007812 24.08789062 C-3.38693559 24.09653588 -5.19387603 24.05220011 -7 24 C-10.17807763 20.82192237 -9.95752619 11.47119071 -10.13818359 7.0390625 C-10 5 -10 5 -8.67578125 2.4375 C-5.48338419 -0.34664502 -4.15509095 -1.38503032 0 0 Z " transform="translate(92,31)" style="fill: #070707;"/><path d="M0 0 C2.47923801 -0.02685095 4.9581884 -0.04676547 7.4375 -0.0625 C8.14455078 -0.07087891 8.85160156 -0.07925781 9.58007812 -0.08789062 C11.38693559 -0.09653588 13.19387603 -0.05220011 15 0 C17.23104097 2.23104097 16.84296699 6.91994574 17.1875 9.9375 C17.29513672 10.77474609 17.40277344 11.61199219 17.51367188 12.47460938 C17.60583984 13.27576172 17.69800781 14.07691406 17.79296875 14.90234375 C17.92481567 16.00823853 17.92481567 16.00823853 18.05932617 17.13647461 C18 19 18 19 16 21 C15.01 21 14.02 21 13 21 C12.34 22.32 11.68 23.64 11 25 C8 24 8 24 6.2109375 20.9453125 C5.58868048 19.67686551 4.97708122 18.40314701 4.375 17.125 C4.06304688 16.48691406 3.75109375 15.84882812 3.4296875 15.19140625 C0.8095088 9.78164074 -0.1135514 6.01822406 0 0 Z " transform="translate(11,60)" style="fill: #070707;"/><path d="M0 0 C3.0625 2.4375 3.0625 2.4375 5 5 C5.33 5.33 5.66 5.66 6 6 C6 8.97 6 11.94 6 15 C-1.26 15 -8.52 15 -16 15 C-16 6.77777778 -16 6.77777778 -13 2 C-8.77818108 -0.81454595 -4.95969791 -0.80684081 0 0 Z " transform="translate(90,70)" style="fill: #030303;"/><path d="M0 0 C0.34328345 1.35167857 0.67402697 2.70654275 1 4.0625 C1.185625 4.81660156 1.37125 5.57070313 1.5625 6.34765625 C2 9 2 9 2 16 C-5.26 16 -12.52 16 -20 16 C-20 12.04 -20 8.08 -20 4 C-18.02 3.8453125 -18.02 3.8453125 -16 3.6875 C-10.45550139 3.09282192 -5.43677121 0 0 0 Z " transform="translate(78,39)" style="fill: #050505;"/><path d="M0 0 C7.26 0 14.52 0 22 0 C22 3.63 22 7.26 22 11 C20.16927083 11.45768229 18.33854167 11.91536458 16.5078125 12.37304688 C15.39019531 12.65245117 15.39019531 12.65245117 14.25 12.9375 C12.14095052 13.46476237 10.03190104 13.99202474 7.92285156 14.51928711 C7.28831055 14.67792236 6.65376953 14.83655762 6 15 C5.25975586 15.18506104 4.51951172 15.37012207 3.75683594 15.56079102 C2.88720215 15.77819946 2.88720215 15.77819946 2 16 C1.66104344 14.27192682 1.32908475 12.54248026 1 10.8125 C0.814375 9.84957031 0.62875 8.88664062 0.4375 7.89453125 C0 5 0 5 0 0 Z " transform="translate(31,60)" style="fill: #050505;"/><path d="M0 0 C0 8.25 0 16.5 0 25 C-7.90061633 20.4853621 -7.90061633 20.4853621 -11.3125 16 C-11.96863281 15.154375 -12.62476563 14.30875 -13.30078125 13.4375 C-15.61500281 10.11778907 -17 8.09005126 -17 4 C-15.29651829 3.3210322 -13.58692821 2.65738043 -11.875 2 C-10.92367187 1.62875 -9.97234375 1.2575 -8.9921875 0.875 C-6 0 -6 0 0 0 Z " transform="translate(53,76)" style="fill: #090909;"/><path d="M0 0 C0.60585938 0.20496094 1.21171875 0.40992188 1.8359375 0.62109375 C7.94390805 2.5850412 13.60095114 3.54292508 20 4 C20 7.96 20 11.92 20 16 C12.74 16 5.48 16 -2 16 C-1.0625 4.88392857 -1.0625 4.88392857 0 0 Z " transform="translate(33,39)" style="fill: #050505;"/><path d="M0 0 C0 7.92 0 15.84 0 24 C-10.66666667 24 -10.66666667 24 -16 21 C-17 18 -17 18 -15.8828125 15.546875 C-6.11173184 0 -6.11173184 0 0 0 Z " transform="translate(53,14)" style="fill: #080808;"/><path d="M0 0 C7.94155324 4.53803042 7.94155324 4.53803042 11.3125 8.875 C11.96863281 9.69742187 12.62476562 10.51984375 13.30078125 11.3671875 C15.11233212 14.17405023 16.08098862 16.79978779 17 20 C15.67661368 20.68620031 14.34050052 21.34786461 13 22 C12.2575 22.37125 11.515 22.7425 10.75 23.125 C8 24 8 24 0 24 C0 16.08 0 8.16 0 0 Z " transform="translate(58,14)" style="fill: #050505;"/><path d="M0 0 C-0.54269531 0.58007812 -1.08539063 1.16015625 -1.64453125 1.7578125 C-5.49973637 5.96727971 -8.82479874 9.69794692 -11 15 C-14.35595828 14.40072174 -16.37801226 13.15377564 -19 11 C-17.70432862 7.11298585 -16.1362801 6.55244726 -12.6875 4.4375 C-11.72199219 3.83808594 -10.75648437 3.23867188 -9.76171875 2.62109375 C-8.85035156 2.08613281 -7.93898438 1.55117188 -7 1 C-6.28457031 0.57847656 -5.56914063 0.15695313 -4.83203125 -0.27734375 C-3 -1 -3 -1 0 0 Z " transform="translate(43,16)" style="fill: #141414;"/><path d="M0 0 C0.43699219 0.96099609 0.43699219 0.96099609 0.8828125 1.94140625 C3.64324118 7.76608438 6.59858165 12.29150595 11 17 C6.25 16.25 6.25 16.25 4 14 C3.278125 13.731875 2.55625 13.46375 1.8125 13.1875 C-1.80893386 11.65845015 -5.06855118 9.63576954 -8 7 C-8 6.34 -8 5.68 -8 5 C-2.52380952 0 -2.52380952 0 0 0 Z " transform="translate(32,83)" style="fill: #121212;"/><path d="M0 0 C3.95304214 0.580913 6.72970679 1.78798491 10.125 3.875 C10.97320312 4.38804688 11.82140625 4.90109375 12.6953125 5.4296875 C14.72979947 6.81589727 16.3432854 8.1916906 18 10 C16.84826645 12.46800047 15.95216435 14.04783565 14 16 C13.01 16 12.02 16 11 16 C9.5703125 14.0234375 9.5703125 14.0234375 8.125 11.375 C5.73100686 7.16157207 3.22563675 3.60512342 0 0 Z " transform="translate(68,15)" style="fill: #0B0B0B;"/><path d="M0 0 C1.60725635 3.21451269 1.05748185 6.43612536 1 10 C-0.9375 10.5625 -0.9375 10.5625 -3 11 C-4 10 -4 10 -4.1328125 7.96875 C-4.13023438 7.1540625 -4.12765625 6.339375 -4.125 5.5 C-4.12757812 4.6853125 -4.13015625 3.870625 -4.1328125 3.03125 C-3.91625413 -0.28081918 -3.38372484 0 0 0 Z " transform="translate(87,98)" style="fill: #E2E2E2;"/><path d="M0 0 C3.3 0 6.6 0 10 0 C9.67 1.32 9.34 2.64 9 4 C5.7 3.67 2.4 3.34 -1 3 C-0.67 2.01 -0.34 1.02 0 0 Z " transform="translate(82,62)" style="fill: #383838;"/><path d="M0 0 C3.82097239 0.53069061 6.06171403 1.49701566 9 4 C8.34 4.66 7.68 5.32 7 6 C3.73539027 4.19587357 2.11070205 3.16605307 0 0 Z " transform="translate(68,15)" style="fill: #343434;"/><path d="M0 0 C3.7952131 1.49097658 5.61042731 3.75700849 8 7 C5.25851328 6.62952882 3.41406801 6.31412056 1.1875 4.625 C0 3 0 3 0 0 Z " transform="translate(35,93)" style="fill: #303030;"/></svg>